<?xml version="1.0" standalone="no"?>
<!DOCTYPE svg PUBLIC "-//W3C//DTD SVG 20010904//EN"
 "http://www.w3.org/TR/2001/REC-SVG-20010904/DTD/svg10.dtd">
<svg version="1.0" xmlns="http://www.w3.org/2000/svg"
 width="985.000000pt" height="985.000000pt" viewBox="0 0 985.000000 985.000000"
 preserveAspectRatio="xMidYMid meet">
<metadata>
Created by potrace 1.14, written by Peter Selinger 2001-2017
</metadata>
<g transform="translate(0.000000,985.000000) scale(0.100000,-0.100000)"
fill="#000000" stroke="none">
<path d="M2137 9354 c-128 -20 -229 -50 -334 -99 -115 -54 -170 -91 -257 -174
-152 -146 -245 -330 -293 -581 -17 -91 -18 -256 -18 -3545 0 -3229 1 -3456 17
-3541 93 -490 386 -787 858 -868 348 -60 722 -2 952 146 231 149 371 367 441
688 20 93 21 122 24 1308 l4 1212 382 0 c417 0 524 -9 682 -55 108 -32 221
-89 301 -153 115 -93 173 -180 423 -644 945 -1748 949 -1755 1033 -1880 232
-347 505 -541 860 -612 253 -51 581 -41 803 25 224 67 409 227 501 434 100
228 88 529 -33 811 -21 49 -110 220 -197 379 -87 160 -171 313 -186 340 -487
892 -507 923 -737 1146 -161 155 -373 288 -573 359 -36 13 -68 26 -73 30 -4 3
26 16 65 29 579 184 1060 530 1360 981 152 229 293 567 352 845 78 373 91 821
36 1208 -168 1175 -970 1951 -2240 2166 -339 57 -229 54 -2225 57 -1531 2
-1855 0 -1928 -12z m3283 -1758 c352 -58 599 -177 750 -359 192 -232 261 -639
169 -1002 -88 -351 -372 -587 -809 -674 -195 -38 -276 -41 -1150 -41 l-850 0
0 1050 0 1051 893 -4 c793 -3 904 -5 997 -21z"/>
</g>
</svg>
